<?xml version="1.0" encoding="UTF-8"?>
<svg xmlns="http://www.w3.org/2000/svg" xmlns:xlink="http://www.w3.org/1999/xlink" width="125pt" height="35pt" viewBox="0 0 125 35" version="1.1">
<g id="surface1">
<path style=" stroke:none;fill-rule:evenodd;fill:rgb(4.705882%,54.901961%,17.254902%);fill-opacity:1;" d="M 5.363281 0.820312 C 5.292969 0.832031 5.183594 0.898438 5.125 0.96875 C 5.046875 1.054688 4.960938 1.09375 4.832031 1.09375 C 4.488281 1.09375 4.324219 1.152344 4.289062 1.28125 C 4.265625 1.378906 4.222656 1.40625 4.097656 1.40625 C 3.828125 1.40625 3.691406 1.464844 3.644531 1.59375 C 3.613281 1.679688 3.554688 1.71875 3.46875 1.71875 C 3.265625 1.71875 3.066406 1.816406 3.035156 1.929688 C 3.019531 1.984375 2.964844 2.03125 2.914062 2.03125 C 2.742188 2.03125 2.65625 2.09375 2.65625 2.214844 C 2.65625 2.308594 2.625 2.339844 2.511719 2.351562 C 2.402344 2.367188 2.367188 2.402344 2.355469 2.511719 C 2.339844 2.617188 2.304688 2.652344 2.199219 2.667969 C 2.089844 2.679688 2.054688 2.714844 2.042969 2.824219 C 2.027344 2.929688 1.992188 2.964844 1.886719 2.980469 C 1.777344 2.992188 1.742188 3.027344 1.730469 3.136719 C 1.714844 3.242188 1.679688 3.277344 1.574219 3.292969 C 1.464844 3.304688 1.429688 3.339844 1.414062 3.449219 C 1.40625 3.546875 1.367188 3.59375 1.308594 3.59375 C 1.191406 3.59375 1.09375 3.695312 1.09375 3.816406 C 1.09375 3.875 1.046875 3.929688 0.984375 3.945312 C 0.863281 3.976562 0.78125 4.152344 0.78125 4.378906 C 0.78125 4.492188 0.757812 4.53125 0.6875 4.53125 C 0.535156 4.53125 0.46875 4.640625 0.46875 4.90625 C 0.46875 5.113281 0.453125 5.15625 0.375 5.15625 C 0.21875 5.15625 0.15625 5.269531 0.15625 5.558594 C 0.15625 5.769531 0.136719 5.832031 0.078125 5.832031 C 0.0078125 5.832031 0 7.445312 0 20.027344 L 0 34.21875 L 13.207031 34.21875 C 26.941406 34.21875 26.816406 34.21875 26.929688 34.003906 C 26.976562 33.921875 27.046875 33.90625 27.414062 33.90625 C 27.859375 33.90625 27.96875 33.863281 27.96875 33.6875 C 27.96875 33.605469 28.019531 33.59375 28.355469 33.59375 C 28.75 33.59375 28.90625 33.527344 28.90625 33.355469 C 28.90625 33.300781 28.980469 33.28125 29.195312 33.28125 C 29.472656 33.28125 29.484375 33.277344 29.511719 33.125 C 29.539062 32.996094 29.570312 32.96875 29.695312 32.96875 C 29.824219 32.96875 29.84375 32.949219 29.84375 32.8125 C 29.84375 32.664062 29.851562 32.65625 30.074219 32.65625 C 30.308594 32.65625 30.46875 32.5625 30.46875 32.421875 C 30.46875 32.382812 30.53125 32.34375 30.613281 32.335938 C 30.722656 32.320312 30.757812 32.285156 30.769531 32.175781 C 30.785156 32.070312 30.820312 32.035156 30.925781 32.019531 C 31.035156 32.007812 31.070312 31.972656 31.082031 31.863281 C 31.097656 31.757812 31.132812 31.722656 31.238281 31.707031 C 31.347656 31.695312 31.382812 31.660156 31.398438 31.550781 C 31.40625 31.46875 31.445312 31.40625 31.484375 31.40625 C 31.597656 31.40625 31.71875 31.253906 31.71875 31.117188 C 31.71875 30.976562 31.863281 30.78125 31.964844 30.78125 C 32.003906 30.78125 32.03125 30.71875 32.03125 30.625 C 32.03125 30.507812 32.054688 30.46875 32.125 30.46875 C 32.277344 30.46875 32.34375 30.359375 32.34375 30.09375 C 32.34375 29.863281 32.355469 29.84375 32.46875 29.84375 C 32.628906 29.84375 32.65625 29.761719 32.65625 29.292969 C 32.65625 28.917969 32.660156 28.90625 32.78125 28.90625 C 32.976562 28.90625 32.96875 29.328125 32.96875 17.445312 C 32.96875 5.847656 32.96875 5.902344 32.761719 5.847656 C 32.679688 5.828125 32.660156 5.769531 32.644531 5.503906 C 32.632812 5.199219 32.625 5.179688 32.488281 5.164062 C 32.355469 5.152344 32.347656 5.132812 32.332031 4.851562 C 32.320312 4.574219 32.308594 4.554688 32.175781 4.539062 C 32.039062 4.523438 32.03125 4.511719 32.03125 4.238281 C 32.03125 3.964844 32.027344 3.953125 31.875 3.925781 C 31.757812 3.902344 31.71875 3.863281 31.71875 3.78125 C 31.71875 3.714844 31.652344 3.617188 31.566406 3.554688 C 31.484375 3.492188 31.402344 3.375 31.382812 3.292969 C 31.363281 3.210938 31.289062 3.105469 31.210938 3.058594 C 31.132812 3.011719 30.992188 2.902344 30.902344 2.816406 C 30.804688 2.722656 30.679688 2.65625 30.601562 2.65625 C 30.488281 2.65625 30.46875 2.632812 30.46875 2.5 C 30.46875 2.363281 30.449219 2.34375 30.316406 2.34375 C 30.1875 2.34375 30.160156 2.320312 30.148438 2.199219 C 30.132812 2.066406 30.113281 2.054688 29.832031 2.042969 C 29.539062 2.027344 29.53125 2.023438 29.53125 1.871094 C 29.53125 1.738281 29.511719 1.71875 29.378906 1.71875 C 29.265625 1.71875 29.222656 1.691406 29.199219 1.59375 C 29.167969 1.472656 29.003906 1.40625 28.722656 1.40625 C 28.640625 1.40625 28.59375 1.367188 28.574219 1.28125 C 28.542969 1.160156 28.363281 1.097656 28.019531 1.09375 C 27.949219 1.09375 27.839844 1.035156 27.773438 0.96875 C 27.710938 0.902344 27.570312 0.832031 27.460938 0.816406 C 27.242188 0.777344 5.570312 0.78125 5.363281 0.820312 M 17.65625 6.875 C 17.65625 7.015625 17.671875 7.03125 17.8125 7.03125 C 17.953125 7.03125 17.96875 7.046875 17.96875 7.1875 C 17.96875 7.328125 17.984375 7.34375 18.125 7.34375 C 18.265625 7.34375 18.28125 7.359375 18.28125 7.5 C 18.28125 7.640625 18.296875 7.65625 18.4375 7.65625 C 18.578125 7.65625 18.59375 7.671875 18.59375 7.8125 C 18.59375 7.953125 18.609375 7.96875 18.75 7.96875 C 18.890625 7.96875 18.90625 7.984375 18.90625 8.125 C 18.90625 8.265625 18.921875 8.28125 19.0625 8.28125 C 19.203125 8.28125 19.21875 8.296875 19.21875 8.4375 C 19.21875 8.578125 19.234375 8.59375 19.375 8.59375 C 19.511719 8.59375 19.53125 8.613281 19.53125 8.738281 C 19.53125 8.835938 19.566406 8.898438 19.648438 8.933594 C 19.710938 8.960938 19.789062 9.03125 19.8125 9.09375 C 19.839844 9.152344 19.910156 9.222656 19.96875 9.25 C 20.03125 9.273438 20.101562 9.351562 20.128906 9.414062 C 20.164062 9.496094 20.226562 9.53125 20.324219 9.53125 C 20.449219 9.53125 20.46875 9.550781 20.46875 9.6875 C 20.46875 9.824219 20.488281 9.84375 20.621094 9.84375 C 20.75 9.84375 20.777344 9.867188 20.789062 9.988281 C 20.804688 10.097656 20.839844 10.132812 20.949219 10.148438 C 21.070312 10.160156 21.09375 10.1875 21.09375 10.316406 C 21.09375 10.449219 21.113281 10.46875 21.25 10.46875 C 21.390625 10.46875 21.40625 10.484375 21.40625 10.625 C 21.40625 10.765625 21.421875 10.78125 21.5625 10.78125 C 21.703125 10.78125 21.71875 10.796875 21.71875 10.9375 C 21.71875 11.074219 21.738281 11.09375 21.871094 11.09375 C 22 11.09375 22.027344 11.117188 22.039062 11.238281 C 22.054688 11.347656 22.089844 11.382812 22.199219 11.394531 C 22.304688 11.410156 22.339844 11.445312 22.355469 11.550781 C 22.367188 11.660156 22.402344 11.695312 22.511719 11.710938 C 22.628906 11.722656 22.65625 11.75 22.65625 11.867188 C 22.65625 11.960938 22.695312 12.023438 22.773438 12.058594 C 22.835938 12.085938 22.914062 12.164062 22.941406 12.226562 C 22.96875 12.289062 23.015625 12.34375 23.042969 12.34375 C 23.296875 12.34375 23.28125 11.894531 23.28125 20.242188 L 23.28125 27.96875 L 9.53125 27.96875 L 9.53125 7.03125 L 9.6875 7.03125 C 9.828125 7.03125 9.84375 7.015625 9.84375 6.875 L 9.84375 6.71875 L 17.65625 6.71875 L 17.65625 6.875 M 10.703125 8.09375 L 10.546875 8.21875 L 10.535156 17.382812 C 10.519531 25.875 10.527344 26.554688 10.605469 26.621094 C 10.730469 26.722656 22.234375 26.757812 22.300781 26.65625 C 22.324219 26.617188 22.34375 23.675781 22.34375 20.117188 L 22.34375 13.644531 L 22.191406 13.613281 C 22.085938 13.589844 22.03125 13.546875 22.019531 13.472656 C 21.996094 13.300781 21.886719 13.292969 19.363281 13.289062 L 17.03125 13.28125 L 17 13.152344 C 16.976562 13.058594 16.933594 13.019531 16.84375 13.019531 L 16.71875 13.019531 L 16.707031 10.507812 L 16.691406 7.996094 L 13.777344 7.980469 L 10.859375 7.96875 L 10.703125 8.09375 M 18.050781 9.300781 C 17.941406 9.410156 17.925781 12.109375 18.035156 12.257812 C 18.09375 12.335938 18.226562 12.34375 19.425781 12.332031 L 20.753906 12.316406 L 20.785156 11.457031 L 20.628906 11.425781 C 20.503906 11.398438 20.46875 11.367188 20.46875 11.269531 C 20.46875 11.171875 20.433594 11.136719 20.316406 11.113281 C 20.199219 11.089844 20.15625 11.050781 20.144531 10.945312 C 20.132812 10.839844 20.097656 10.804688 19.988281 10.792969 C 19.882812 10.777344 19.847656 10.742188 19.832031 10.636719 C 19.820312 10.527344 19.785156 10.492188 19.675781 10.480469 C 19.570312 10.464844 19.535156 10.429688 19.519531 10.324219 C 19.507812 10.214844 19.472656 10.179688 19.363281 10.167969 C 19.257812 10.152344 19.222656 10.117188 19.207031 10.011719 C 19.195312 9.902344 19.160156 9.867188 19.050781 9.855469 C 18.945312 9.839844 18.910156 9.804688 18.894531 9.699219 C 18.882812 9.589844 18.847656 9.554688 18.738281 9.539062 C 18.636719 9.53125 18.59375 9.496094 18.59375 9.425781 C 18.59375 9.234375 18.207031 9.144531 18.050781 9.300781 M 39.960938 9.570312 C 39.796875 9.585938 39.714844 9.621094 39.65625 9.714844 C 39.574219 9.839844 39.546875 9.84375 39.007812 9.84375 C 38.429688 9.84375 38.28125 9.890625 38.28125 10.082031 C 38.28125 10.136719 38.214844 10.15625 38.03125 10.15625 C 37.765625 10.15625 37.65625 10.222656 37.65625 10.375 C 37.65625 10.433594 37.617188 10.46875 37.550781 10.46875 C 37.414062 10.46875 37.136719 10.609375 37.136719 10.679688 C 37.136719 10.710938 37.042969 10.824219 36.925781 10.929688 C 36.8125 11.039062 36.71875 11.152344 36.714844 11.175781 C 36.714844 11.203125 36.644531 11.28125 36.558594 11.351562 C 36.457031 11.4375 36.40625 11.527344 36.40625 11.625 C 36.40625 11.734375 36.382812 11.769531 36.304688 11.769531 C 36.132812 11.769531 36.09375 12.074219 36.09375 13.402344 C 36.09375 14.683594 36.117188 14.84375 36.304688 14.84375 C 36.375 14.84375 36.40625 14.878906 36.40625 14.964844 C 36.40625 15.175781 36.53125 15.355469 36.746094 15.453125 C 36.859375 15.503906 36.976562 15.601562 37.003906 15.664062 C 37.039062 15.742188 37.101562 15.78125 37.195312 15.78125 C 37.3125 15.78125 37.339844 15.808594 37.351562 15.925781 C 37.367188 16.058594 37.386719 16.070312 37.667969 16.082031 C 37.914062 16.097656 37.96875 16.117188 37.96875 16.191406 C 37.96875 16.363281 38.082031 16.40625 38.527344 16.40625 C 38.921875 16.40625 38.957031 16.414062 38.957031 16.507812 C 38.957031 16.667969 39.121094 16.71875 39.65625 16.71875 C 40.101562 16.71875 40.15625 16.730469 40.15625 16.8125 C 40.15625 16.996094 40.265625 17.03125 40.839844 17.03125 L 41.398438 17.03125 L 41.414062 17.175781 C 41.429688 17.308594 41.449219 17.320312 41.726562 17.332031 C 42 17.347656 42.027344 17.359375 42.078125 17.503906 C 42.117188 17.621094 42.160156 17.65625 42.269531 17.65625 C 42.4375 17.65625 42.652344 17.851562 42.65625 18.003906 C 42.65625 18.066406 42.679688 18.183594 42.710938 18.261719 C 42.804688 18.503906 42.667969 19.261719 42.527344 19.28125 C 42.464844 19.289062 42.414062 19.34375 42.40625 19.414062 C 42.394531 19.496094 42.351562 19.53125 42.265625 19.53125 C 42.066406 19.53125 41.867188 19.628906 41.835938 19.742188 C 41.8125 19.839844 41.765625 19.84375 40.519531 19.84375 L 39.230469 19.84375 L 39.199219 19.71875 C 39.160156 19.570312 39.039062 19.53125 38.609375 19.53125 C 38.296875 19.53125 38.289062 19.527344 38.273438 19.386719 C 38.257812 19.277344 38.222656 19.242188 38.113281 19.226562 C 38.035156 19.21875 37.902344 19.144531 37.816406 19.058594 C 37.714844 18.957031 37.613281 18.90625 37.507812 18.90625 C 37.375 18.90625 37.347656 18.882812 37.335938 18.761719 C 37.320312 18.652344 37.285156 18.617188 37.175781 18.605469 C 37.070312 18.589844 37.035156 18.554688 37.019531 18.449219 C 37.007812 18.320312 36.980469 18.304688 36.765625 18.292969 C 36.363281 18.265625 36.09375 18.472656 36.09375 18.808594 C 36.09375 18.863281 36.058594 18.90625 36.019531 18.90625 C 35.878906 18.90625 35.78125 19.066406 35.78125 19.300781 C 35.78125 19.488281 35.765625 19.53125 35.6875 19.53125 C 35.542969 19.53125 35.46875 19.636719 35.46875 19.84375 C 35.46875 20.046875 35.542969 20.15625 35.679688 20.15625 C 35.734375 20.15625 35.78125 20.214844 35.800781 20.3125 C 35.824219 20.445312 35.855469 20.46875 35.984375 20.46875 C 36.09375 20.46875 36.148438 20.5 36.171875 20.574219 C 36.210938 20.691406 36.390625 20.78125 36.585938 20.78125 C 36.675781 20.78125 36.714844 20.816406 36.738281 20.9375 C 36.765625 21.078125 36.785156 21.09375 36.976562 21.09375 C 37.148438 21.09375 37.203125 21.121094 37.300781 21.25 C 37.390625 21.375 37.453125 21.40625 37.605469 21.40625 C 37.746094 21.40625 37.832031 21.445312 37.941406 21.5625 C 38.085938 21.710938 38.113281 21.71875 38.53125 21.71875 C 38.914062 21.71875 38.972656 21.730469 38.992188 21.816406 C 39.042969 22.007812 39.230469 22.03125 40.570312 22.03125 C 41.929688 22.03125 42.03125 22.015625 42.03125 21.792969 C 42.03125 21.734375 42.132812 21.71875 42.523438 21.71875 C 43.089844 21.71875 43.167969 21.699219 43.230469 21.53125 C 43.265625 21.441406 43.320312 21.40625 43.417969 21.40625 C 43.507812 21.40625 43.609375 21.351562 43.691406 21.257812 C 43.765625 21.175781 43.90625 21.070312 43.996094 21.019531 C 44.089844 20.972656 44.167969 20.898438 44.167969 20.859375 C 44.167969 20.816406 44.210938 20.78125 44.265625 20.78125 C 44.433594 20.78125 44.53125 20.636719 44.53125 20.386719 C 44.53125 20.164062 44.539062 20.15625 44.6875 20.15625 L 44.84375 20.15625 L 44.84375 19.84375 C 44.84375 19.546875 44.851562 19.53125 44.96875 19.53125 C 45.148438 19.53125 45.15625 19.472656 45.15625 18.386719 L 45.15625 17.402344 L 45.003906 17.371094 C 44.855469 17.339844 44.847656 17.320312 44.832031 17.039062 C 44.820312 16.761719 44.808594 16.742188 44.675781 16.726562 C 44.566406 16.714844 44.53125 16.683594 44.53125 16.597656 C 44.527344 16.296875 44.332031 16.09375 44.046875 16.09375 C 43.941406 16.09375 43.910156 16.066406 43.898438 15.949219 C 43.882812 15.828125 43.851562 15.804688 43.699219 15.789062 C 43.578125 15.78125 43.46875 15.722656 43.375 15.621094 C 43.253906 15.488281 43.199219 15.46875 42.949219 15.46875 C 42.675781 15.46875 42.664062 15.460938 42.648438 15.324219 C 42.628906 15.183594 42.628906 15.183594 42.179688 15.167969 C 41.757812 15.152344 41.726562 15.144531 41.699219 15.03125 C 41.65625 14.867188 41.546875 14.84375 40.796875 14.84375 L 40.164062 14.84375 L 40.148438 14.699219 C 40.128906 14.558594 40.128906 14.558594 39.675781 14.542969 C 39.265625 14.527344 39.21875 14.515625 39.21875 14.425781 C 39.21875 14.3125 39.074219 14.21875 38.890625 14.21875 C 38.765625 14.21875 38.59375 14.078125 38.59375 13.972656 C 38.59375 13.941406 38.523438 13.855469 38.4375 13.785156 C 38.242188 13.617188 38.1875 12.65625 38.375 12.65625 C 38.492188 12.65625 38.59375 12.558594 38.59375 12.441406 C 38.59375 12.394531 38.648438 12.339844 38.722656 12.324219 C 38.804688 12.300781 38.863281 12.242188 38.886719 12.160156 C 38.914062 12.046875 38.945312 12.03125 39.160156 12.03125 C 39.421875 12.03125 39.53125 11.964844 39.53125 11.8125 C 39.53125 11.726562 39.59375 11.71875 40.332031 11.71875 L 41.132812 11.71875 L 41.300781 11.875 C 41.449219 12.011719 41.507812 12.03125 41.777344 12.03125 C 42.046875 12.03125 42.097656 12.046875 42.230469 12.1875 C 42.320312 12.28125 42.433594 12.34375 42.511719 12.34375 C 42.617188 12.34375 42.648438 12.375 42.675781 12.5 C 42.699219 12.632812 42.730469 12.65625 42.863281 12.65625 C 42.980469 12.65625 43.019531 12.679688 43.019531 12.75 C 43.019531 12.921875 43.132812 12.96875 43.527344 12.96875 L 43.90625 12.96875 L 43.90625 12.8125 C 43.90625 12.710938 43.933594 12.65625 43.980469 12.65625 C 44.09375 12.65625 44.21875 12.507812 44.21875 12.367188 C 44.21875 12.226562 44.363281 12.03125 44.464844 12.03125 C 44.511719 12.03125 44.53125 11.914062 44.53125 11.585938 L 44.53125 11.140625 L 44.335938 10.960938 C 44.226562 10.863281 44.089844 10.78125 44.027344 10.78125 C 43.949219 10.78125 43.90625 10.746094 43.898438 10.664062 C 43.886719 10.589844 43.824219 10.53125 43.722656 10.496094 C 43.636719 10.464844 43.519531 10.390625 43.464844 10.324219 C 43.402344 10.253906 43.273438 10.191406 43.152344 10.171875 C 43.035156 10.15625 42.859375 10.074219 42.761719 9.992188 C 42.582031 9.84375 42.574219 9.84375 41.84375 9.84375 C 41.125 9.84375 41.109375 9.839844 41.054688 9.722656 C 40.976562 9.546875 40.675781 9.503906 39.960938 9.570312 M 60.792969 9.566406 C 60.617188 9.585938 60.554688 9.617188 60.511719 9.714844 C 60.453125 9.839844 60.433594 9.84375 59.890625 9.84375 C 59.339844 9.84375 59.324219 9.847656 59.175781 9.992188 C 59.0625 10.101562 58.953125 10.148438 58.769531 10.167969 C 58.589844 10.191406 58.488281 10.234375 58.414062 10.328125 C 58.355469 10.398438 58.242188 10.46875 58.164062 10.488281 C 58.070312 10.511719 58.011719 10.566406 57.988281 10.652344 C 57.972656 10.726562 57.917969 10.78125 57.871094 10.78125 C 57.753906 10.78125 57.65625 10.882812 57.65625 11 C 57.65625 11.050781 57.621094 11.09375 57.582031 11.09375 C 57.441406 11.09375 57.34375 11.253906 57.34375 11.480469 C 57.34375 11.6875 57.332031 11.707031 57.1875 11.738281 L 57.03125 11.769531 L 57.03125 12.394531 C 57.03125 12.964844 57.023438 13.023438 56.925781 13.074219 C 56.859375 13.109375 56.824219 13.183594 56.824219 13.28125 C 56.824219 13.378906 56.859375 13.453125 56.925781 13.488281 C 57.023438 13.539062 57.03125 13.597656 57.03125 14.195312 C 57.03125 14.59375 57.050781 14.84375 57.082031 14.84375 C 57.113281 14.84375 57.136719 14.878906 57.136719 14.921875 C 57.136719 14.960938 57.183594 15.023438 57.238281 15.050781 C 57.296875 15.082031 57.34375 15.152344 57.34375 15.207031 C 57.34375 15.382812 57.40625 15.46875 57.53125 15.46875 C 57.617188 15.46875 57.65625 15.5 57.65625 15.5625 C 57.65625 15.691406 57.757812 15.78125 57.898438 15.78125 C 57.96875 15.78125 58.027344 15.824219 58.046875 15.886719 C 58.085938 16.011719 58.265625 16.09375 58.507812 16.09375 C 58.621094 16.097656 58.71875 16.144531 58.824219 16.25 C 58.96875 16.398438 58.996094 16.40625 59.410156 16.40625 C 59.792969 16.40625 59.84375 16.417969 59.84375 16.5 C 59.84375 16.675781 59.953125 16.71875 60.414062 16.71875 C 60.839844 16.722656 60.867188 16.730469 61.011719 16.875 C 61.15625 17.023438 61.179688 17.03125 61.628906 17.03125 C 62.039062 17.03125 62.097656 17.042969 62.117188 17.128906 C 62.15625 17.265625 62.355469 17.34375 62.679688 17.34375 C 62.949219 17.34375 62.960938 17.351562 62.976562 17.488281 C 62.992188 17.597656 63.027344 17.632812 63.128906 17.644531 C 63.21875 17.65625 63.277344 17.707031 63.320312 17.816406 C 63.355469 17.917969 63.414062 17.96875 63.484375 17.96875 C 63.589844 17.96875 63.59375 17.996094 63.59375 18.59375 C 63.59375 19.160156 63.585938 19.21875 63.5 19.21875 C 63.382812 19.21875 63.28125 19.316406 63.28125 19.429688 C 63.28125 19.488281 63.203125 19.527344 63.007812 19.5625 C 62.78125 19.601562 62.730469 19.628906 62.71875 19.726562 L 62.699219 19.84375 L 61.402344 19.84375 C 60.332031 19.84375 60.105469 19.832031 60.105469 19.773438 C 60.105469 19.660156 59.777344 19.53125 59.484375 19.53125 C 59.238281 19.53125 59.21875 19.523438 59.21875 19.40625 C 59.21875 19.269531 59.109375 19.21875 58.792969 19.21875 C 58.621094 19.21875 58.597656 19.203125 58.585938 19.074219 C 58.570312 18.964844 58.535156 18.929688 58.425781 18.914062 C 58.320312 18.902344 58.28125 18.871094 58.28125 18.796875 C 58.28125 18.726562 58.226562 18.671875 58.125 18.636719 C 58.023438 18.601562 57.96875 18.546875 57.96875 18.484375 C 57.96875 18.351562 57.777344 18.28125 57.429688 18.28125 C 57.09375 18.28125 57.03125 18.339844 57.03125 18.652344 C 57.03125 18.882812 57.023438 18.898438 56.886719 18.914062 C 56.769531 18.929688 56.742188 18.960938 56.730469 19.097656 C 56.71875 19.207031 56.679688 19.269531 56.613281 19.285156 C 56.351562 19.355469 56.308594 20.15625 56.5625 20.15625 C 56.703125 20.15625 56.71875 20.171875 56.71875 20.3125 C 56.71875 20.449219 56.738281 20.46875 56.867188 20.46875 C 56.992188 20.46875 57.023438 20.496094 57.050781 20.625 C 57.078125 20.777344 57.089844 20.78125 57.367188 20.78125 C 57.652344 20.78125 57.65625 20.78125 57.65625 20.9375 C 57.65625 21.082031 57.671875 21.09375 57.84375 21.09375 C 57.984375 21.09375 58.039062 21.117188 58.054688 21.191406 C 58.085938 21.308594 58.28125 21.40625 58.488281 21.40625 C 58.59375 21.40625 58.648438 21.4375 58.671875 21.511719 C 58.722656 21.667969 58.90625 21.71875 59.429688 21.71875 C 59.84375 21.71875 59.894531 21.730469 59.894531 21.8125 C 59.894531 22.019531 59.972656 22.03125 61.304688 22.03125 C 62.65625 22.03125 62.917969 21.996094 62.917969 21.816406 C 62.917969 21.726562 62.960938 21.71875 63.382812 21.71875 C 63.824219 21.71875 63.851562 21.710938 64 21.566406 C 64.09375 21.472656 64.21875 21.40625 64.328125 21.398438 C 64.476562 21.382812 64.507812 21.359375 64.523438 21.238281 C 64.535156 21.117188 64.5625 21.09375 64.691406 21.09375 C 64.824219 21.09375 64.84375 21.074219 64.84375 20.9375 C 64.84375 20.796875 64.859375 20.78125 65 20.78125 C 65.140625 20.78125 65.15625 20.765625 65.15625 20.625 C 65.15625 20.484375 65.171875 20.46875 65.3125 20.46875 L 65.46875 20.46875 L 65.46875 19.84375 L 65.78125 19.84375 L 65.78125 17.078125 L 65.628906 16.9375 C 65.527344 16.84375 65.46875 16.734375 65.460938 16.613281 C 65.445312 16.460938 65.421875 16.429688 65.300781 16.417969 C 65.195312 16.402344 65.160156 16.367188 65.144531 16.261719 C 65.132812 16.152344 65.097656 16.117188 64.988281 16.101562 C 64.875 16.089844 64.84375 16.058594 64.84375 15.964844 C 64.84375 15.820312 64.757812 15.78125 64.453125 15.78125 C 64.242188 15.78125 64.222656 15.769531 64.210938 15.636719 C 64.195312 15.503906 64.175781 15.492188 63.894531 15.480469 C 63.636719 15.464844 63.59375 15.449219 63.59375 15.359375 C 63.59375 15.210938 63.394531 15.15625 62.839844 15.15625 L 62.351562 15.15625 L 62.335938 15.011719 L 62.316406 14.871094 L 61.707031 14.855469 C 61.101562 14.839844 61.09375 14.839844 61.09375 14.71875 C 61.09375 14.5625 60.988281 14.53125 60.4375 14.53125 C 60.011719 14.53125 59.84375 14.460938 59.84375 14.28125 C 59.84375 14.246094 59.773438 14.21875 59.6875 14.21875 C 59.554688 14.21875 59.53125 14.199219 59.53125 14.085938 C 59.53125 13.984375 59.5 13.949219 59.375 13.925781 C 59.246094 13.898438 59.21875 13.867188 59.21875 13.742188 C 59.21875 13.652344 59.191406 13.59375 59.148438 13.59375 C 59.015625 13.59375 58.90625 13.40625 58.90625 13.1875 C 58.90625 12.992188 58.917969 12.96875 59.03125 12.96875 C 59.179688 12.96875 59.21875 12.882812 59.21875 12.574219 C 59.21875 12.351562 59.226562 12.34375 59.375 12.34375 C 59.515625 12.34375 59.53125 12.328125 59.53125 12.1875 L 59.53125 12.03125 L 59.894531 12.03125 C 60.257812 12.03125 60.46875 11.933594 60.46875 11.769531 C 60.46875 11.636719 62.070312 11.707031 62.101562 11.84375 C 62.140625 11.992188 62.261719 12.03125 62.695312 12.03125 C 62.972656 12.03125 63.019531 12.042969 63.019531 12.125 C 63.019531 12.273438 63.128906 12.34375 63.367188 12.34375 C 63.566406 12.34375 63.589844 12.355469 63.601562 12.488281 C 63.617188 12.597656 63.652344 12.632812 63.761719 12.644531 C 63.867188 12.660156 63.902344 12.695312 63.917969 12.800781 C 63.933594 12.941406 63.941406 12.941406 64.34375 12.957031 C 64.820312 12.976562 64.84375 12.957031 64.84375 12.589844 C 64.84375 12.351562 64.847656 12.34375 65 12.34375 C 65.136719 12.34375 65.15625 12.324219 65.15625 12.191406 C 65.15625 12.089844 65.210938 11.984375 65.316406 11.878906 C 65.542969 11.652344 65.53125 11.128906 65.300781 11.101562 C 65.1875 11.089844 65.15625 11.058594 65.15625 10.957031 C 65.15625 10.859375 65.121094 10.824219 64.996094 10.796875 C 64.894531 10.777344 64.820312 10.722656 64.789062 10.644531 C 64.753906 10.550781 64.691406 10.519531 64.480469 10.488281 C 64.253906 10.460938 64.21875 10.441406 64.21875 10.335938 C 64.21875 10.195312 64.132812 10.15625 63.824219 10.15625 C 63.628906 10.15625 63.59375 10.140625 63.59375 10.054688 C 63.59375 9.882812 63.421875 9.84375 62.6875 9.84375 C 62.152344 9.84375 61.980469 9.828125 61.980469 9.777344 C 61.980469 9.605469 61.40625 9.503906 60.792969 9.566406 M 90.195312 9.570312 C 90.113281 9.582031 90.011719 9.648438 89.96875 9.71875 C 89.886719 9.839844 89.859375 9.84375 89.324219 9.84375 C 88.609375 9.84375 88.445312 9.878906 88.371094 10.035156 C 88.328125 10.128906 88.273438 10.15625 88.128906 10.15625 C 87.84375 10.15625 87.71875 10.207031 87.6875 10.332031 C 87.667969 10.417969 87.601562 10.460938 87.4375 10.496094 C 87.28125 10.53125 87.199219 10.582031 87.160156 10.667969 C 87.132812 10.730469 87.054688 10.800781 86.992188 10.816406 C 86.925781 10.832031 86.835938 10.914062 86.792969 10.996094 C 86.75 11.078125 86.683594 11.144531 86.640625 11.144531 C 86.601562 11.144531 86.539062 11.195312 86.507812 11.257812 C 86.472656 11.320312 86.367188 11.449219 86.269531 11.546875 C 86.152344 11.664062 86.09375 11.769531 86.09375 11.875 C 86.09375 12 86.070312 12.027344 85.949219 12.039062 C 85.839844 12.054688 85.804688 12.089844 85.789062 12.199219 C 85.78125 12.28125 85.742188 12.34375 85.703125 12.34375 C 85.566406 12.34375 85.46875 12.503906 85.46875 12.738281 C 85.46875 12.9375 85.453125 12.972656 85.34375 13 C 85.207031 13.03125 85.15625 13.148438 85.15625 13.4375 C 85.15625 13.5625 85.125 13.640625 85.054688 13.683594 C 84.910156 13.773438 84.84375 14.070312 84.84375 14.644531 C 84.84375 15.101562 84.835938 15.152344 84.738281 15.183594 C 84.582031 15.234375 84.523438 15.597656 84.582031 16.144531 C 84.617188 16.453125 84.648438 16.550781 84.734375 16.605469 C 84.832031 16.671875 84.84375 16.730469 84.84375 17.101562 C 84.84375 17.617188 84.917969 17.917969 85.054688 17.953125 C 85.136719 17.976562 85.15625 18.027344 85.15625 18.203125 C 85.15625 18.507812 85.195312 18.59375 85.339844 18.59375 C 85.453125 18.59375 85.464844 18.617188 85.480469 18.894531 C 85.492188 19.171875 85.503906 19.195312 85.632812 19.207031 C 85.753906 19.222656 85.773438 19.253906 85.804688 19.484375 C 85.828125 19.6875 85.863281 19.753906 85.960938 19.800781 C 86.03125 19.832031 86.09375 19.917969 86.113281 20.007812 C 86.136719 20.121094 86.171875 20.15625 86.269531 20.15625 C 86.367188 20.15625 86.398438 20.191406 86.425781 20.3125 C 86.449219 20.4375 86.484375 20.46875 86.585938 20.46875 C 86.679688 20.46875 86.71875 20.496094 86.71875 20.5625 C 86.71875 20.714844 86.828125 20.78125 87.09375 20.78125 C 87.335938 20.78125 87.34375 20.785156 87.34375 20.9375 C 87.34375 21.074219 87.363281 21.09375 87.488281 21.09375 C 87.601562 21.09375 87.644531 21.128906 87.691406 21.25 C 87.746094 21.394531 87.769531 21.40625 88.015625 21.40625 C 88.238281 21.40625 88.28125 21.421875 88.28125 21.5 C 88.28125 21.675781 88.390625 21.71875 88.839844 21.71875 C 89.21875 21.71875 89.269531 21.730469 89.269531 21.8125 C 89.269531 22.015625 89.359375 22.03125 90.453125 22.03125 C 91.550781 22.03125 91.71875 21.996094 91.71875 21.769531 C 91.71875 21.742188 91.890625 21.71875 92.125 21.71875 C 92.542969 21.71875 92.65625 21.671875 92.65625 21.5 C 92.65625 21.4375 92.695312 21.40625 92.777344 21.40625 C 93 21.40625 93.230469 21.296875 93.230469 21.191406 C 93.230469 21.113281 93.265625 21.09375 93.410156 21.09375 C 93.578125 21.09375 93.59375 21.082031 93.59375 20.9375 C 93.59375 20.796875 93.609375 20.78125 93.75 20.78125 C 93.890625 20.78125 93.90625 20.765625 93.90625 20.625 C 93.90625 20.484375 93.921875 20.46875 94.0625 20.46875 C 94.203125 20.46875 94.21875 20.453125 94.21875 20.3125 C 94.21875 20.171875 94.234375 20.15625 94.375 20.15625 C 94.515625 20.15625 94.53125 20.140625 94.53125 20 C 94.53125 19.859375 94.546875 19.84375 94.6875 19.84375 C 94.828125 19.84375 94.84375 19.828125 94.84375 19.6875 C 94.84375 19.546875 94.859375 19.53125 95 19.53125 L 95.15625 19.53125 L 95.15625 18.90625 L 95.3125 18.90625 C 95.453125 18.90625 95.46875 18.890625 95.46875 18.75 C 95.46875 18.664062 95.492188 18.59375 95.519531 18.59375 C 95.683594 18.59375 95.78125 18.382812 95.78125 18.019531 C 95.78125 17.738281 95.796875 17.65625 95.855469 17.65625 C 96.082031 17.65625 96.09375 17.578125 96.09375 15.886719 C 96.09375 14.226562 96.070312 14.023438 95.882812 13.972656 C 95.796875 13.949219 95.78125 13.902344 95.78125 13.636719 C 95.78125 13.359375 95.765625 13.308594 95.625 13.167969 C 95.523438 13.066406 95.46875 12.960938 95.46875 12.859375 C 95.46875 12.730469 95.445312 12.699219 95.3125 12.675781 C 95.164062 12.644531 95.15625 12.628906 95.15625 12.382812 C 95.15625 12.144531 95.144531 12.121094 95.003906 12.070312 C 94.894531 12.027344 94.84375 11.96875 94.832031 11.878906 C 94.820312 11.777344 94.785156 11.742188 94.675781 11.726562 C 94.554688 11.714844 94.53125 11.6875 94.53125 11.558594 C 94.53125 11.425781 94.511719 11.40625 94.375 11.40625 C 94.234375 11.40625 94.21875 11.390625 94.21875 11.25 C 94.21875 11.109375 94.203125 11.09375 94.0625 11.09375 C 93.921875 11.09375 93.90625 11.078125 93.90625 10.9375 C 93.90625 10.796875 93.890625 10.78125 93.75 10.78125 C 93.621094 10.78125 93.59375 10.761719 93.59375 10.65625 C 93.59375 10.53125 93.507812 10.46875 93.328125 10.46875 C 93.265625 10.46875 93.230469 10.433594 93.230469 10.371094 C 93.230469 10.261719 93.003906 10.15625 92.765625 10.152344 C 92.691406 10.152344 92.550781 10.082031 92.449219 9.996094 C 92.273438 9.847656 92.257812 9.84375 91.691406 9.84375 C 91.132812 9.84375 91.109375 9.839844 91.054688 9.722656 C 91.011719 9.625 90.941406 9.589844 90.753906 9.566406 C 90.5 9.53125 90.445312 9.53125 90.195312 9.570312 M 105.558594 9.570312 C 105.421875 9.582031 105.335938 9.628906 105.28125 9.71875 C 105.199219 9.839844 105.171875 9.84375 104.617188 9.84375 C 104.035156 9.84375 103.699219 9.9375 103.699219 10.101562 C 103.699219 10.132812 103.617188 10.15625 103.519531 10.15625 C 103.398438 10.15625 103.296875 10.203125 103.175781 10.3125 C 103.085938 10.398438 102.953125 10.484375 102.878906 10.5 C 102.808594 10.519531 102.730469 10.589844 102.707031 10.652344 C 102.675781 10.730469 102.609375 10.78125 102.515625 10.789062 C 102.402344 10.804688 102.367188 10.835938 102.355469 10.949219 C 102.339844 11.054688 102.304688 11.089844 102.199219 11.105469 C 102.089844 11.117188 102.054688 11.152344 102.042969 11.261719 C 102.027344 11.367188 101.992188 11.402344 101.886719 11.417969 C 101.777344 11.429688 101.742188 11.464844 101.730469 11.574219 C 101.714844 11.679688 101.679688 11.714844 101.574219 11.730469 C 101.464844 11.742188 101.429688 11.777344 101.414062 11.886719 C 101.40625 11.988281 101.363281 12.039062 101.277344 12.0625 C 101.195312 12.082031 101.140625 12.144531 101.121094 12.238281 C 101.101562 12.320312 101.054688 12.398438 101.019531 12.414062 C 100.925781 12.449219 100.78125 12.746094 100.78125 12.898438 C 100.78125 12.96875 100.746094 13.039062 100.703125 13.054688 C 100.554688 13.109375 100.46875 13.390625 100.46875 13.808594 C 100.46875 14.167969 100.457031 14.21875 100.375 14.21875 C 100.167969 14.21875 100.15625 14.292969 100.15625 15.710938 C 100.15625 17.132812 100.183594 17.34375 100.363281 17.34375 C 100.460938 17.34375 100.46875 17.375 100.46875 17.730469 C 100.46875 18.199219 100.496094 18.28125 100.65625 18.28125 C 100.769531 18.28125 100.78125 18.300781 100.78125 18.53125 C 100.78125 18.769531 100.867188 18.96875 101.027344 19.089844 C 101.066406 19.117188 101.113281 19.210938 101.136719 19.296875 C 101.160156 19.382812 101.226562 19.476562 101.289062 19.503906 C 101.351562 19.53125 101.40625 19.609375 101.417969 19.6875 C 101.429688 19.785156 101.464844 19.820312 101.574219 19.835938 C 101.695312 19.847656 101.71875 19.875 101.71875 20.003906 C 101.71875 20.136719 101.738281 20.15625 101.875 20.15625 C 102.015625 20.15625 102.03125 20.171875 102.03125 20.3125 C 102.03125 20.453125 102.046875 20.46875 102.1875 20.46875 C 102.328125 20.46875 102.34375 20.484375 102.34375 20.625 C 102.34375 20.761719 102.363281 20.78125 102.488281 20.78125 C 102.601562 20.78125 102.644531 20.816406 102.691406 20.9375 C 102.742188 21.066406 102.78125 21.09375 102.914062 21.09375 C 103.015625 21.09375 103.074219 21.121094 103.074219 21.164062 C 103.074219 21.265625 103.300781 21.40625 103.457031 21.40625 C 103.550781 21.40625 103.597656 21.445312 103.636719 21.5625 C 103.691406 21.71875 103.695312 21.71875 104.105469 21.71875 C 104.519531 21.71875 104.519531 21.71875 104.574219 21.875 L 104.628906 22.03125 L 105.90625 22.03125 C 107.238281 22.03125 107.34375 22.015625 107.34375 21.792969 C 107.34375 21.734375 107.429688 21.71875 107.730469 21.71875 C 108.125 21.71875 108.28125 21.652344 108.28125 21.480469 C 108.28125 21.4375 108.332031 21.40625 108.402344 21.40625 C 108.621094 21.40625 108.855469 21.296875 108.855469 21.195312 C 108.855469 21.125 108.898438 21.097656 109.023438 21.085938 C 109.164062 21.070312 109.195312 21.042969 109.210938 20.925781 C 109.222656 20.804688 109.25 20.78125 109.378906 20.78125 C 109.511719 20.78125 109.53125 20.761719 109.53125 20.625 C 109.53125 20.484375 109.546875 20.46875 109.6875 20.46875 C 109.773438 20.46875 109.84375 20.445312 109.84375 20.417969 C 109.84375 20.339844 110.015625 20.15625 110.089844 20.15625 C 110.128906 20.15625 110.15625 20.09375 110.15625 20 C 110.15625 19.859375 110.171875 19.84375 110.3125 19.84375 C 110.453125 19.84375 110.46875 19.828125 110.46875 19.6875 C 110.46875 19.585938 110.496094 19.53125 110.542969 19.53125 C 110.722656 19.53125 110.78125 19.378906 110.78125 18.914062 C 110.78125 18.367188 110.765625 18.339844 110.425781 18.296875 C 110.210938 18.273438 110.15625 18.246094 110.15625 18.171875 C 110.15625 17.914062 108.945312 17.875 108.917969 18.132812 C 108.90625 18.238281 108.863281 18.277344 108.746094 18.300781 C 108.625 18.324219 108.59375 18.359375 108.59375 18.464844 C 108.59375 18.554688 108.554688 18.609375 108.46875 18.644531 C 108.402344 18.667969 108.332031 18.75 108.3125 18.820312 C 108.292969 18.902344 108.238281 18.957031 108.164062 18.96875 C 108.089844 18.976562 108.039062 19.027344 108.03125 19.101562 C 108.019531 19.175781 107.976562 19.21875 107.917969 19.21875 C 107.742188 19.21875 107.65625 19.28125 107.65625 19.40625 C 107.65625 19.519531 107.636719 19.53125 107.410156 19.53125 C 107.160156 19.53125 106.824219 19.679688 106.824219 19.789062 C 106.824219 19.824219 106.46875 19.84375 105.835938 19.84375 L 104.851562 19.84375 L 104.835938 19.699219 C 104.820312 19.566406 104.800781 19.554688 104.523438 19.542969 C 104.242188 19.527344 104.222656 19.519531 104.210938 19.386719 C 104.195312 19.277344 104.160156 19.242188 104.050781 19.230469 C 103.945312 19.214844 103.910156 19.179688 103.894531 19.074219 C 103.882812 18.964844 103.847656 18.929688 103.738281 18.917969 C 103.632812 18.902344 103.597656 18.867188 103.582031 18.761719 C 103.570312 18.652344 103.535156 18.617188 103.425781 18.605469 C 103.320312 18.589844 103.285156 18.554688 103.269531 18.449219 C 103.257812 18.339844 103.222656 18.304688 103.113281 18.289062 C 102.976562 18.273438 102.96875 18.261719 102.96875 17.996094 C 102.96875 17.726562 102.960938 17.714844 102.8125 17.683594 C 102.65625 17.648438 102.65625 17.648438 102.65625 17.273438 C 102.65625 16.863281 102.632812 16.800781 102.460938 16.75 C 102.3125 16.703125 102.269531 14.84375 102.417969 14.84375 C 102.589844 14.84375 102.65625 14.6875 102.65625 14.292969 C 102.65625 13.917969 102.660156 13.90625 102.78125 13.90625 C 102.929688 13.90625 102.96875 13.820312 102.96875 13.511719 C 102.96875 13.289062 102.976562 13.28125 103.125 13.28125 C 103.261719 13.28125 103.28125 13.261719 103.28125 13.128906 C 103.28125 13 103.304688 12.972656 103.425781 12.960938 C 103.535156 12.945312 103.570312 12.910156 103.582031 12.800781 C 103.597656 12.695312 103.632812 12.660156 103.738281 12.644531 C 103.847656 12.632812 103.882812 12.597656 103.898438 12.488281 C 103.910156 12.375 103.941406 12.34375 104.035156 12.34375 C 104.234375 12.34375 104.433594 12.246094 104.464844 12.132812 C 104.488281 12.050781 104.535156 12.03125 104.742188 12.03125 C 104.996094 12.03125 105.15625 11.941406 105.15625 11.792969 C 105.15625 11.640625 106.441406 11.6875 106.476562 11.84375 C 106.515625 11.992188 106.636719 12.03125 107.070312 12.03125 C 107.347656 12.03125 107.394531 12.042969 107.394531 12.125 C 107.394531 12.273438 107.503906 12.34375 107.742188 12.34375 C 107.941406 12.34375 107.964844 12.355469 107.976562 12.488281 C 107.992188 12.597656 108.027344 12.632812 108.136719 12.648438 C 108.257812 12.660156 108.28125 12.6875 108.28125 12.816406 C 108.28125 12.949219 108.300781 12.96875 108.433594 12.96875 C 108.585938 12.96875 108.589844 12.976562 108.605469 13.269531 L 108.621094 13.566406 L 108.800781 13.585938 C 108.902344 13.59375 109.011719 13.644531 109.050781 13.703125 C 109.140625 13.832031 109.355469 13.832031 109.425781 13.699219 C 109.464844 13.625 109.535156 13.59375 109.664062 13.59375 C 109.828125 13.59375 109.84375 13.582031 109.84375 13.441406 C 109.84375 13.289062 109.851562 13.285156 110.144531 13.269531 L 110.441406 13.253906 L 110.441406 12.058594 L 110.300781 12.039062 C 110.164062 12.023438 110.15625 12.011719 110.15625 11.738281 C 110.15625 11.46875 110.148438 11.453125 110.003906 11.425781 C 109.886719 11.402344 109.84375 11.363281 109.832031 11.257812 C 109.820312 11.152344 109.785156 11.117188 109.675781 11.105469 C 109.570312 11.089844 109.535156 11.054688 109.519531 10.949219 C 109.507812 10.839844 109.472656 10.804688 109.367188 10.792969 C 109.265625 10.78125 109.21875 10.742188 109.210938 10.660156 C 109.199219 10.582031 109.136719 10.53125 109.023438 10.496094 C 108.929688 10.46875 108.855469 10.417969 108.855469 10.386719 C 108.855469 10.28125 108.515625 10.15625 108.234375 10.15625 C 107.988281 10.15625 107.96875 10.148438 107.96875 10.03125 C 107.96875 9.863281 107.894531 9.84375 107.261719 9.84375 C 106.738281 9.84375 106.714844 9.839844 106.667969 9.722656 C 106.605469 9.554688 106.210938 9.5 105.558594 9.570312 M 49.878906 9.878906 C 49.820312 9.9375 49.835938 21.816406 49.898438 21.929688 C 49.972656 22.070312 51.632812 22.085938 51.6875 21.949219 C 51.703125 21.902344 51.71875 19.160156 51.71875 15.855469 L 51.71875 9.84375 L 50.816406 9.84375 C 50.320312 9.84375 49.898438 9.859375 49.878906 9.878906 M 70.535156 9.878906 C 70.445312 9.914062 70.4375 21.578125 70.523438 21.804688 C 70.609375 22.03125 70.570312 22.03125 73.191406 22.03125 C 75.800781 22.03125 76.042969 22.011719 76.042969 21.800781 C 76.042969 21.734375 76.121094 21.71875 76.511719 21.71875 C 77.007812 21.71875 77.292969 21.632812 77.292969 21.484375 C 77.292969 21.429688 77.347656 21.40625 77.457031 21.40625 C 77.574219 21.40625 77.660156 21.363281 77.757812 21.253906 C 77.847656 21.152344 77.953125 21.097656 78.074219 21.085938 C 78.226562 21.070312 78.257812 21.046875 78.273438 20.925781 C 78.285156 20.804688 78.3125 20.78125 78.441406 20.78125 C 78.574219 20.78125 78.59375 20.761719 78.59375 20.625 C 78.59375 20.484375 78.609375 20.46875 78.75 20.46875 C 78.890625 20.46875 78.90625 20.453125 78.90625 20.3125 C 78.90625 20.171875 78.921875 20.15625 79.0625 20.15625 C 79.203125 20.15625 79.21875 20.140625 79.21875 20 C 79.21875 19.859375 79.234375 19.84375 79.375 19.84375 C 79.511719 19.84375 79.53125 19.824219 79.53125 19.691406 C 79.53125 19.5625 79.554688 19.535156 79.675781 19.523438 C 79.808594 19.507812 79.820312 19.488281 79.832031 19.210938 C 79.847656 18.929688 79.855469 18.910156 79.988281 18.898438 C 80.121094 18.882812 80.132812 18.863281 80.144531 18.582031 C 80.160156 18.304688 80.171875 18.28125 80.285156 18.28125 C 80.453125 18.28125 80.46875 18.210938 80.46875 17.398438 C 80.46875 16.683594 80.46875 16.679688 80.59375 16.648438 C 80.90625 16.570312 80.859375 15.179688 80.535156 14.984375 C 80.484375 14.953125 80.46875 14.757812 80.46875 14.203125 C 80.46875 13.421875 80.453125 13.355469 80.285156 13.324219 C 80.199219 13.308594 80.179688 13.253906 80.15625 12.996094 C 80.132812 12.699219 80.121094 12.679688 79.988281 12.664062 C 79.851562 12.648438 79.84375 12.632812 79.84375 12.390625 C 79.84375 12.148438 79.832031 12.125 79.691406 12.078125 C 79.582031 12.039062 79.53125 11.984375 79.519531 11.882812 C 79.507812 11.777344 79.472656 11.742188 79.363281 11.726562 C 79.242188 11.714844 79.21875 11.6875 79.21875 11.558594 C 79.21875 11.425781 79.199219 11.40625 79.066406 11.40625 C 78.9375 11.40625 78.910156 11.382812 78.898438 11.261719 C 78.882812 11.152344 78.847656 11.117188 78.738281 11.105469 C 78.632812 11.089844 78.597656 11.054688 78.582031 10.949219 C 78.570312 10.839844 78.535156 10.804688 78.425781 10.789062 C 78.324219 10.78125 78.273438 10.738281 78.25 10.652344 C 78.222656 10.546875 78.175781 10.523438 77.9375 10.492188 C 77.691406 10.460938 77.65625 10.441406 77.65625 10.339844 C 77.65625 10.195312 77.570312 10.15625 77.261719 10.15625 C 77.0625 10.15625 77.027344 10.140625 77.003906 10.03125 C 76.976562 9.9375 76.925781 9.898438 76.78125 9.875 C 76.550781 9.839844 70.628906 9.839844 70.535156 9.878906 M 75.261719 11.773438 C 75.261719 11.910156 75.601562 12.03125 75.992188 12.03125 C 76.378906 12.03125 76.382812 12.03125 76.441406 12.1875 C 76.496094 12.332031 76.519531 12.34375 76.761719 12.34375 C 77.007812 12.34375 77.023438 12.351562 77.039062 12.488281 C 77.054688 12.597656 77.089844 12.632812 77.199219 12.644531 C 77.304688 12.660156 77.339844 12.695312 77.355469 12.800781 C 77.367188 12.910156 77.402344 12.945312 77.511719 12.960938 C 77.625 12.972656 77.65625 13.003906 77.65625 13.105469 C 77.65625 13.28125 77.796875 13.542969 77.890625 13.542969 C 77.941406 13.542969 77.96875 13.59375 77.96875 13.691406 C 77.96875 13.914062 78.070312 14.160156 78.167969 14.175781 C 78.429688 14.226562 78.382812 17.277344 78.117188 17.5625 C 78.003906 17.679688 77.96875 17.769531 77.96875 17.925781 C 77.96875 18.136719 77.910156 18.234375 77.746094 18.296875 C 77.695312 18.316406 77.65625 18.382812 77.65625 18.460938 C 77.65625 18.554688 77.628906 18.59375 77.5625 18.59375 C 77.441406 18.59375 77.34375 18.691406 77.34375 18.8125 C 77.34375 18.867188 77.304688 18.90625 77.25 18.90625 C 77.128906 18.90625 77.03125 19.003906 77.03125 19.125 C 77.03125 19.191406 76.992188 19.21875 76.90625 19.21875 C 76.703125 19.21875 76.523438 19.308594 76.484375 19.425781 C 76.457031 19.511719 76.40625 19.53125 76.199219 19.53125 C 75.941406 19.53125 75.78125 19.621094 75.78125 19.769531 C 75.78125 19.832031 75.539062 19.84375 74.21875 19.84375 L 72.65625 19.84375 L 72.65625 11.71875 L 73.957031 11.71875 C 74.804688 11.71875 75.261719 11.738281 75.261719 11.773438 M 91.15625 11.863281 C 91.21875 11.992188 91.257812 12.007812 91.523438 12.019531 C 91.730469 12.03125 91.824219 12.058594 91.824219 12.105469 C 91.824219 12.203125 92.050781 12.34375 92.207031 12.34375 C 92.308594 12.34375 92.339844 12.375 92.351562 12.488281 C 92.367188 12.597656 92.402344 12.632812 92.511719 12.644531 C 92.617188 12.660156 92.652344 12.695312 92.667969 12.800781 C 92.679688 12.910156 92.714844 12.945312 92.824219 12.957031 C 92.929688 12.972656 92.964844 13.007812 92.980469 13.113281 C 92.992188 13.222656 93.027344 13.257812 93.136719 13.273438 C 93.261719 13.285156 93.28125 13.3125 93.28125 13.464844 C 93.28125 13.726562 93.367188 13.90625 93.488281 13.90625 C 93.578125 13.90625 93.59375 13.941406 93.59375 14.167969 C 93.59375 14.390625 93.617188 14.445312 93.75 14.566406 L 93.90625 14.703125 L 93.90625 15.867188 C 93.90625 16.988281 93.902344 17.03125 93.804688 17.03125 C 93.667969 17.03125 93.59375 17.183594 93.59375 17.46875 C 93.59375 17.601562 93.570312 17.707031 93.539062 17.707031 C 93.464844 17.707031 93.28125 18.027344 93.28125 18.160156 C 93.28125 18.234375 93.238281 18.28125 93.148438 18.304688 C 93.058594 18.328125 93.007812 18.382812 92.988281 18.488281 C 92.964844 18.589844 92.921875 18.644531 92.84375 18.65625 C 92.773438 18.664062 92.726562 18.714844 92.71875 18.792969 C 92.707031 18.859375 92.648438 18.933594 92.578125 18.957031 C 92.511719 18.984375 92.441406 19.054688 92.421875 19.113281 C 92.402344 19.171875 92.34375 19.21875 92.292969 19.21875 C 92.117188 19.21875 92.03125 19.28125 92.03125 19.40625 C 92.03125 19.519531 92.011719 19.53125 91.78125 19.53125 C 91.515625 19.53125 91.40625 19.597656 91.40625 19.75 C 91.40625 19.835938 91.335938 19.84375 90.476562 19.84375 L 89.546875 19.84375 L 89.488281 19.714844 C 89.441406 19.613281 89.378906 19.582031 89.171875 19.554688 C 88.960938 19.523438 88.910156 19.496094 88.882812 19.398438 C 88.859375 19.296875 88.808594 19.273438 88.570312 19.242188 C 88.3125 19.210938 88.285156 19.195312 88.269531 19.070312 C 88.257812 18.964844 88.222656 18.929688 88.113281 18.914062 C 87.992188 18.902344 87.96875 18.875 87.96875 18.746094 C 87.96875 18.613281 87.949219 18.59375 87.8125 18.59375 C 87.660156 18.59375 87.65625 18.589844 87.65625 18.332031 C 87.65625 18.085938 87.644531 18.0625 87.5 18.011719 C 87.351562 17.960938 87.34375 17.941406 87.34375 17.679688 C 87.34375 17.414062 87.335938 17.402344 87.1875 17.371094 L 87.03125 17.335938 L 87.03125 14.21875 L 87.34375 14.21875 L 87.34375 13.59375 L 87.5 13.59375 C 87.636719 13.59375 87.65625 13.574219 87.65625 13.441406 C 87.65625 13.324219 87.683594 13.285156 87.789062 13.257812 C 87.878906 13.238281 87.929688 13.179688 87.949219 13.074219 C 87.96875 12.972656 88.019531 12.914062 88.105469 12.894531 C 88.179688 12.875 88.230469 12.824219 88.230469 12.765625 C 88.230469 12.703125 88.277344 12.65625 88.359375 12.632812 C 88.433594 12.617188 88.515625 12.546875 88.539062 12.476562 C 88.574219 12.394531 88.636719 12.34375 88.734375 12.335938 C 88.851562 12.320312 88.882812 12.289062 88.898438 12.175781 C 88.914062 12.039062 88.925781 12.03125 89.199219 12.03125 C 89.507812 12.03125 89.792969 11.917969 89.792969 11.796875 C 89.792969 11.730469 89.902344 11.71875 90.441406 11.71875 L 91.089844 11.71875 L 91.15625 11.863281 "/>
</g>
</svg>
