<?xml version="1.0" encoding="UTF-8"?>
<svg xmlns="http://www.w3.org/2000/svg" xmlns:xlink="http://www.w3.org/1999/xlink" width="16pt" height="16pt" viewBox="0 0 16 16" version="1.1">
<g id="surface1">
<path style=" stroke:none;fill-rule:evenodd;fill:rgb(4.705882%,54.901961%,17.254902%);fill-opacity:1;" d="M 2.484375 0.015625 C 2.457031 0.0234375 2.425781 0.0429688 2.417969 0.0546875 C 2.40625 0.0703125 2.371094 0.078125 2.34375 0.078125 C 2.316406 0.078125 2.261719 0.0976562 2.222656 0.117188 C 2.179688 0.140625 2.121094 0.160156 2.082031 0.167969 C 2.046875 0.171875 2.007812 0.191406 1.996094 0.207031 C 1.984375 0.222656 1.949219 0.238281 1.917969 0.246094 C 1.886719 0.25 1.847656 0.269531 1.832031 0.285156 C 1.816406 0.304688 1.78125 0.320312 1.753906 0.328125 C 1.722656 0.332031 1.691406 0.347656 1.679688 0.363281 C 1.667969 0.375 1.625 0.402344 1.589844 0.417969 C 1.550781 0.433594 1.519531 0.453125 1.519531 0.464844 C 1.519531 0.472656 1.507812 0.480469 1.496094 0.480469 C 1.480469 0.480469 1.453125 0.496094 1.429688 0.519531 C 1.410156 0.539062 1.375 0.566406 1.355469 0.578125 C 1.257812 0.632812 1.179688 0.695312 1.019531 0.851562 C 0.925781 0.945312 0.847656 1.023438 0.847656 1.027344 C 0.847656 1.03125 0.804688 1.082031 0.75 1.136719 C 0.695312 1.195312 0.636719 1.265625 0.617188 1.296875 C 0.597656 1.328125 0.570312 1.363281 0.554688 1.375 C 0.539062 1.386719 0.527344 1.40625 0.527344 1.417969 C 0.527344 1.425781 0.511719 1.449219 0.488281 1.460938 C 0.464844 1.476562 0.449219 1.5 0.449219 1.515625 C 0.449219 1.527344 0.429688 1.5625 0.40625 1.585938 C 0.386719 1.613281 0.367188 1.644531 0.367188 1.65625 C 0.367188 1.667969 0.351562 1.699219 0.328125 1.722656 C 0.304688 1.746094 0.289062 1.78125 0.289062 1.800781 C 0.289062 1.820312 0.269531 1.851562 0.246094 1.871094 C 0.226562 1.894531 0.207031 1.925781 0.207031 1.945312 C 0.207031 1.964844 0.191406 2 0.171875 2.027344 C 0.148438 2.050781 0.128906 2.101562 0.121094 2.140625 C 0.117188 2.179688 0.0976562 2.222656 0.0820312 2.242188 C 0.0625 2.261719 0.046875 2.3125 0.0390625 2.359375 C 0.0351562 2.410156 0.0234375 2.453125 0.015625 2.457031 C 0.00390625 2.460938 0 5.078125 0 9.234375 L 0 16 L 13.417969 16 L 13.476562 15.960938 C 13.511719 15.9375 13.558594 15.921875 13.59375 15.921875 C 13.625 15.921875 13.675781 15.902344 13.710938 15.878906 C 13.746094 15.859375 13.796875 15.839844 13.824219 15.839844 C 13.847656 15.839844 13.890625 15.824219 13.917969 15.800781 C 13.941406 15.777344 13.984375 15.761719 14.007812 15.761719 C 14.03125 15.761719 14.066406 15.742188 14.089844 15.71875 C 14.113281 15.699219 14.144531 15.679688 14.164062 15.679688 C 14.1875 15.679688 14.21875 15.660156 14.238281 15.640625 C 14.261719 15.617188 14.289062 15.601562 14.300781 15.601562 C 14.3125 15.601562 14.347656 15.582031 14.378906 15.558594 C 14.40625 15.539062 14.4375 15.519531 14.445312 15.519531 C 14.453125 15.519531 14.476562 15.503906 14.492188 15.480469 C 14.511719 15.457031 14.53125 15.441406 14.542969 15.441406 C 14.550781 15.441406 14.566406 15.425781 14.578125 15.410156 C 14.589844 15.394531 14.628906 15.363281 14.664062 15.34375 C 14.808594 15.25 15.285156 14.777344 15.308594 14.699219 C 15.3125 14.691406 15.332031 14.664062 15.355469 14.640625 C 15.375 14.617188 15.390625 14.589844 15.390625 14.582031 C 15.390625 14.570312 15.40625 14.554688 15.425781 14.542969 C 15.441406 14.535156 15.46875 14.503906 15.480469 14.476562 C 15.519531 14.390625 15.558594 14.328125 15.597656 14.28125 C 15.617188 14.257812 15.632812 14.222656 15.632812 14.207031 C 15.632812 14.191406 15.648438 14.15625 15.667969 14.132812 C 15.691406 14.109375 15.710938 14.066406 15.71875 14.039062 C 15.726562 14.011719 15.742188 13.976562 15.757812 13.960938 C 15.777344 13.945312 15.792969 13.902344 15.800781 13.867188 C 15.808594 13.828125 15.824219 13.78125 15.839844 13.757812 C 15.855469 13.738281 15.875 13.683594 15.882812 13.640625 C 15.886719 13.597656 15.90625 13.542969 15.921875 13.519531 C 15.941406 13.492188 15.957031 13.4375 15.960938 13.355469 C 15.96875 13.285156 15.980469 13.226562 15.988281 13.222656 C 16.003906 13.210938 16.003906 2.789062 15.988281 2.777344 C 15.980469 2.773438 15.96875 2.714844 15.960938 2.644531 C 15.957031 2.5625 15.941406 2.507812 15.921875 2.480469 C 15.90625 2.457031 15.886719 2.40625 15.882812 2.367188 C 15.875 2.324219 15.855469 2.28125 15.839844 2.265625 C 15.824219 2.25 15.804688 2.203125 15.800781 2.160156 C 15.792969 2.117188 15.777344 2.066406 15.757812 2.050781 C 15.742188 2.03125 15.722656 1.992188 15.71875 1.964844 C 15.710938 1.933594 15.691406 1.890625 15.667969 1.867188 C 15.648438 1.84375 15.632812 1.808594 15.632812 1.792969 C 15.632812 1.777344 15.613281 1.742188 15.59375 1.71875 C 15.574219 1.691406 15.550781 1.65625 15.546875 1.636719 C 15.539062 1.621094 15.519531 1.589844 15.503906 1.574219 C 15.484375 1.558594 15.472656 1.535156 15.472656 1.519531 C 15.472656 1.5 15.453125 1.476562 15.433594 1.460938 C 15.410156 1.449219 15.390625 1.425781 15.390625 1.417969 C 15.390625 1.40625 15.378906 1.386719 15.367188 1.375 C 15.351562 1.363281 15.324219 1.328125 15.304688 1.296875 C 15.203125 1.132812 14.765625 0.710938 14.644531 0.65625 C 14.628906 0.648438 14.589844 0.625 14.566406 0.601562 C 14.539062 0.578125 14.503906 0.542969 14.488281 0.527344 C 14.46875 0.511719 14.4375 0.492188 14.414062 0.488281 C 14.394531 0.480469 14.355469 0.457031 14.332031 0.4375 C 14.304688 0.417969 14.277344 0.398438 14.265625 0.398438 C 14.253906 0.398438 14.230469 0.386719 14.21875 0.367188 C 14.203125 0.351562 14.167969 0.332031 14.144531 0.328125 C 14.121094 0.324219 14.085938 0.304688 14.070312 0.289062 C 14.058594 0.269531 14.023438 0.253906 13.996094 0.246094 C 13.964844 0.242188 13.929688 0.222656 13.917969 0.207031 C 13.902344 0.191406 13.859375 0.171875 13.828125 0.167969 C 13.796875 0.160156 13.738281 0.136719 13.703125 0.117188 C 13.667969 0.0976562 13.613281 0.078125 13.585938 0.078125 C 13.558594 0.078125 13.511719 0.0625 13.484375 0.0429688 L 13.4375 0.0078125 L 7.988281 0.00390625 C 4.757812 0.00390625 2.515625 0.0078125 2.484375 0.015625 M 8.566406 2.835938 C 8.65625 2.90625 11.328125 5.574219 11.328125 5.59375 C 11.328125 5.601562 11.34375 5.625 11.359375 5.640625 C 11.40625 5.683594 11.410156 12.953125 11.363281 13.007812 C 11.347656 13.027344 11.332031 13.054688 11.328125 13.074219 C 11.324219 13.097656 11.296875 13.117188 11.265625 13.128906 C 11.238281 13.136719 11.203125 13.15625 11.191406 13.171875 C 11.164062 13.214844 4.738281 13.214844 4.703125 13.175781 C 4.691406 13.160156 4.660156 13.140625 4.636719 13.125 C 4.613281 13.113281 4.59375 13.09375 4.59375 13.082031 C 4.59375 13.070312 4.578125 13.042969 4.558594 13.019531 C 4.515625 12.964844 4.507812 3.042969 4.550781 3.007812 C 4.5625 3 4.582031 2.964844 4.59375 2.933594 C 4.605469 2.898438 4.621094 2.878906 4.640625 2.878906 C 4.65625 2.878906 4.691406 2.863281 4.714844 2.839844 L 4.761719 2.800781 L 8.523438 2.800781 L 8.566406 2.835938 M 5.257812 3.457031 C 5.234375 3.464844 5.203125 3.484375 5.191406 3.5 C 5.160156 3.539062 5.15625 12.457031 5.1875 12.496094 C 5.238281 12.5625 5.1875 12.558594 7.960938 12.558594 C 10.820312 12.558594 10.714844 12.5625 10.742188 12.488281 C 10.746094 12.472656 10.753906 11.050781 10.753906 9.328125 L 10.753906 6.195312 L 10.714844 6.152344 C 10.65625 6.085938 10.605469 6.082031 9.40625 6.082031 L 8.277344 6.078125 L 8.195312 5.996094 C 8.136719 5.941406 8.113281 5.902344 8.113281 5.875 C 8.113281 5.851562 8.097656 5.808594 8.082031 5.78125 C 8.050781 5.730469 8.046875 5.691406 8.042969 4.613281 L 8.039062 3.5 L 8.003906 3.46875 C 7.960938 3.4375 5.367188 3.425781 5.257812 3.457031 M 8.789062 4.128906 C 8.757812 4.164062 8.734375 5.195312 8.757812 5.339844 C 8.777344 5.441406 8.757812 5.441406 9.40625 5.441406 L 9.996094 5.441406 L 10.046875 5.398438 C 10.105469 5.351562 10.109375 5.296875 10.0625 5.257812 C 10.046875 5.238281 10.03125 5.21875 10.03125 5.210938 C 10.03125 5.203125 9.785156 4.949219 9.484375 4.644531 C 8.882812 4.046875 8.871094 4.039062 8.789062 4.128906 "/>
</g>
</svg>
